<svg width="979" height="839" viewBox="0 0 979 839" fill="none" xmlns="http://www.w3.org/2000/svg">
<g opacity="0.75">
<path d="M350.983 10.9398L211.502 0C214.236 20.9679 213.325 58.3453 208.767 92.0762C202.385 146.775 181.417 246.144 157.715 331.839C123.984 459.469 54.6987 650.915 0 742.08L127.63 784.927C177.771 677.353 238.851 490.465 271.67 362.835C296.285 270.759 318.164 158.626 330.927 96.6344C335.485 76.5782 344.602 35.5542 350.983 10.9398ZM118.514 146.775C81.1363 146.775 51.0521 145.863 3.64655 140.393L7.2931 253.438C39.2007 255.261 72.9315 257.084 117.602 257.084C220.618 257.084 363.746 242.498 476.791 216.06V102.104C358.277 130.365 229.735 146.775 118.514 146.775Z" fill="#F3F3F3"/>
<path d="M638.143 222.745V329.408C695.576 322.115 751.187 319.38 815.002 319.38C869.701 319.38 925.311 324.85 971.805 330.319L973.628 220.922C920.753 215.452 866.054 212.717 814.09 212.717C753.922 212.717 689.195 217.275 638.143 222.745Z" fill="#F3F3F3"/>
<path d="M136.217 137.19C97.6847 137.19 66.6711 136.234 17.8008 130.495L21.56 249.089C54.4535 251.001 89.2265 252.914 135.277 252.914C241.476 252.914 389.027 237.612 505.564 209.876V90.3264C383.388 119.975 250.874 137.19 136.217 137.19Z" fill="#F3F3F3"/>
<path d="M628.74 112.74L499.287 60.7764C482.877 99.0655 465.556 129.15 454.616 152.853C405.387 240.371 218.5 612.322 151.95 794.651L280.492 838.41C294.166 790.093 325.162 687.989 349.777 635.113C381.684 561.27 433.648 497.455 495.64 497.455C528.459 497.455 545.781 516.599 548.516 548.507C551.251 585.884 551.251 659.728 553.986 708.956C558.544 774.595 605.038 835.675 706.23 835.675C846.624 835.675 930.495 731.748 978.812 574.945L879.443 494.72C853.917 607.764 804.688 710.78 725.375 710.78C695.291 710.78 670.676 696.193 667.03 660.639C662.471 622.35 664.295 549.418 662.471 509.306C658.825 432.728 617.801 389.88 549.427 389.88C514.785 389.88 479.231 398.085 445.5 418.141C490.17 337.005 553.986 220.314 599.568 155.588C609.596 140.09 618.712 124.592 628.74 112.74Z" fill="#F3F3F3"/>
</g>
</svg>
