<svg width="115" height="47" viewBox="0 0 115 47" fill="none" xmlns="http://www.w3.org/2000/svg">
<path d="M19.6803 0.605564L11.8593 0C12.0126 1.16066 11.9615 3.22967 11.7059 5.09682C11.3481 8.12463 10.1724 13.6252 8.84334 18.3687C6.95199 25.4336 3.06706 36.031 0 41.0773L7.15646 43.4491C9.96793 37.4944 13.3928 27.1494 15.233 20.0845C16.6132 14.9877 17.84 8.78066 18.5557 5.34914C18.8113 4.23894 19.3225 1.96808 19.6803 0.605564ZM6.64528 8.12463C4.54946 8.12463 2.86259 8.07417 0.204469 7.77139L0.408937 14.0289C2.19805 14.1298 4.0894 14.2307 6.59416 14.2307C12.3705 14.2307 20.3959 13.4233 26.7345 11.9599V5.65192C20.0892 7.21629 12.8816 8.12463 6.64528 8.12463Z" fill="#FAFAFA"/>
<path d="M33.5726 5.27755L28.3931 8.22967C30.3575 10.7811 32.0494 13.3713 33.8385 16.4305C35.372 19.0526 36.6655 21.8699 37.7034 24.2501L43.0668 21.3097C41.85 18.6235 40.4493 15.9257 38.9924 13.4346C37.3055 10.5502 35.2695 7.57351 33.5726 5.27755Z" fill="#FAFAFA"/>
<path d="M7.63786 7.5941C5.47729 7.5941 3.73829 7.54116 0.998047 7.22351L1.20883 13.7882C3.05323 13.8941 5.00301 13.9999 7.58517 13.9999C13.5399 13.9999 21.8134 13.1529 28.3478 11.6176V5C21.4972 6.64117 14.0669 7.5941 7.63786 7.5941Z" fill="#FAFAFA"/>
<path d="M35.255 6.24068L27.9963 3.36426C27.0762 5.48373 26.105 7.14902 25.4916 8.46108C22.7312 13.3056 12.2521 33.8947 8.52051 43.9874L15.7281 46.4097C16.4949 43.7351 18.2329 38.0832 19.613 35.1563C21.4022 31.0687 24.3159 27.5363 27.7919 27.5363C29.6321 27.5363 30.6033 28.596 30.7567 30.3623C30.91 32.4313 30.91 36.5188 31.0634 39.2438C31.319 42.8772 33.926 46.2583 39.6 46.2583C47.4721 46.2583 52.175 40.5054 54.8842 31.8257L49.3124 27.3849C47.8811 33.6424 45.1207 39.3448 40.6735 39.3448C38.9866 39.3448 37.6064 38.5374 37.402 36.5693C37.1464 34.4498 37.2486 30.4127 37.1464 28.1923C36.9419 23.9534 34.6416 21.5816 30.8078 21.5816C28.8653 21.5816 26.8717 22.0358 24.9804 23.146C27.4851 18.6547 31.0634 12.1954 33.6193 8.61247C34.1816 7.75459 34.6927 6.89671 35.255 6.24068Z" fill="#FAFAFA"/>
<path d="M69.5913 23.1999C69.078 23.1999 68.5918 23.1399 68.1326 23.0199C67.6734 22.9132 67.2547 22.7532 66.8765 22.5399C66.4984 22.3132 66.1607 22.0466 65.8636 21.7399C65.5665 21.4199 65.3098 21.0666 65.0938 20.6799L67.0589 18.6599C67.248 18.9399 67.4303 19.1733 67.6059 19.3599C67.7815 19.5333 67.9503 19.6799 68.1124 19.7999C68.2879 19.9199 68.4635 20.0066 68.6391 20.0599C68.8282 20.1133 69.024 20.1399 69.2266 20.1399C69.5507 20.1399 69.8344 20.0666 70.0775 19.9199C70.3341 19.7599 70.5299 19.5466 70.665 19.2799C70.8001 19.0133 70.8676 18.6999 70.8676 18.3399V11.96H68.2744V9H76.4186V11.96H74.2306V18.7399C74.2306 19.4199 74.109 20.0333 73.8659 20.5799C73.6363 21.1266 73.3122 21.5999 72.8935 21.9999C72.4748 22.3866 71.9818 22.6866 71.4146 22.8999C70.8608 23.0999 70.2531 23.1999 69.5913 23.1999Z" fill="#FAFAFA"/>
<path d="M81.873 23.2199C81.0762 23.2199 80.3941 23.0532 79.8268 22.7199C79.2731 22.3732 78.8409 21.8799 78.5303 21.2399C78.2331 20.5999 78.0846 19.8333 78.0846 18.9399V12.38H81.3463V18.4999C81.3463 18.9266 81.4138 19.2933 81.5489 19.5999C81.6839 19.9066 81.8865 20.1466 82.1566 20.3199C82.4268 20.4799 82.7509 20.5599 83.1291 20.5599C83.4127 20.5599 83.6693 20.5133 83.8989 20.4199C84.142 20.3266 84.3446 20.1999 84.5067 20.0399C84.6823 19.8666 84.8173 19.6733 84.9119 19.4599C85.0064 19.2333 85.0537 18.9866 85.0537 18.7199V12.38H88.3154V22.9999H85.2563L85.1145 20.8199L85.7222 20.5799C85.5602 21.0866 85.29 21.5399 84.9119 21.9399C84.5337 22.3266 84.0813 22.6399 83.5545 22.8799C83.0278 23.1066 82.4673 23.2199 81.873 23.2199Z" fill="#FAFAFA"/>
<path d="M94.8307 23.1999C93.7773 23.1999 92.8454 23.0332 92.035 22.6999C91.2381 22.3666 90.6034 21.9199 90.1306 21.3599L92.0958 19.6799C92.5145 20.0933 92.9872 20.3999 93.5139 20.5999C94.0406 20.7866 94.5404 20.8799 95.0131 20.8799C95.2022 20.8799 95.371 20.8599 95.5196 20.8199C95.6681 20.7799 95.7897 20.7266 95.8842 20.6599C95.9923 20.5799 96.0733 20.4933 96.1273 20.3999C96.1814 20.2933 96.2084 20.1733 96.2084 20.0399C96.2084 19.7733 96.0868 19.5666 95.8437 19.4199C95.7221 19.3533 95.5196 19.2733 95.2359 19.1799C94.9523 19.0866 94.5876 18.9799 94.1419 18.8599C93.5072 18.6999 92.9534 18.5133 92.4807 18.2999C92.0215 18.0733 91.6433 17.8133 91.3462 17.5199C91.0761 17.2399 90.8667 16.9333 90.7182 16.5999C90.5696 16.2533 90.4953 15.8666 90.4953 15.44C90.4953 14.9466 90.6101 14.5 90.8397 14.1C91.0828 13.7 91.4002 13.3533 91.7919 13.06C92.1971 12.7666 92.6563 12.5466 93.1695 12.4C93.6962 12.24 94.2365 12.16 94.7902 12.16C95.3845 12.16 95.9517 12.2266 96.492 12.36C97.0322 12.4933 97.532 12.68 97.9912 12.92C98.4639 13.16 98.8826 13.4466 99.2472 13.78L97.5455 15.66C97.3024 15.4333 97.0255 15.2333 96.7148 15.06C96.4177 14.8733 96.1071 14.7266 95.7829 14.62C95.4588 14.5133 95.1616 14.46 94.8915 14.46C94.6889 14.46 94.5066 14.48 94.3445 14.52C94.196 14.5466 94.0677 14.6 93.9596 14.68C93.8516 14.7466 93.7705 14.8333 93.7165 14.94C93.6625 15.0333 93.6355 15.1466 93.6355 15.28C93.6355 15.4133 93.6692 15.54 93.7368 15.66C93.8178 15.78 93.9258 15.88 94.0609 15.9599C94.196 16.0399 94.4121 16.1333 94.7092 16.2399C95.0063 16.3333 95.4115 16.4533 95.9247 16.5999C96.5595 16.7733 97.1065 16.9666 97.5657 17.1799C98.0249 17.3933 98.3896 17.6466 98.6597 17.9399C98.8758 18.1666 99.0379 18.4333 99.1459 18.7399C99.254 19.0333 99.308 19.3533 99.308 19.6999C99.308 20.3799 99.1122 20.9866 98.7205 21.5199C98.3423 22.0399 97.8156 22.4532 97.1403 22.7599C96.465 23.0532 95.6951 23.1999 94.8307 23.1999Z" fill="#FAFAFA"/>
<path d="M102.126 22.9999V9.7H105.368V22.9999H102.126ZM100.222 15.18V12.38H107.455V15.18H100.222Z" fill="#FAFAFA"/>
<path d="M65.7646 41.0001V27.0002H72.1463C73.0512 27.0002 73.8683 27.1935 74.5976 27.5802C75.3404 27.9668 75.9212 28.5002 76.3399 29.1802C76.7586 29.8468 76.9679 30.6068 76.9679 31.4602C76.9679 32.3401 76.7586 33.1335 76.3399 33.8401C75.9212 34.5335 75.3472 35.0801 74.6179 35.4801C73.8885 35.8801 73.0647 36.0801 72.1463 36.0801H69.0466V41.0001H65.7646ZM73.6252 41.0001L70.0191 34.6801L73.5441 34.1801L77.5554 41.0001H73.6252ZM69.0466 33.4801H71.8424C72.1935 33.4801 72.4974 33.4068 72.754 33.2601C73.0242 33.1001 73.2267 32.8801 73.3618 32.6001C73.5104 32.3201 73.5847 32.0002 73.5847 31.6402C73.5847 31.2802 73.5036 30.9668 73.3415 30.7002C73.1795 30.4202 72.9431 30.2068 72.6325 30.0602C72.3353 29.9135 71.9707 29.8402 71.5385 29.8402H69.0466V33.4801Z" fill="#FAFAFA"/>
<path d="M84.375 41.2001C83.1865 41.2001 82.1532 40.9668 81.2753 40.5001C80.3975 40.0201 79.7154 39.3734 79.2292 38.5601C78.743 37.7334 78.4999 36.7935 78.4999 35.7401C78.4999 34.9268 78.6349 34.1801 78.905 33.5001C79.1752 32.8201 79.5533 32.2335 80.0395 31.7402C80.5258 31.2335 81.0998 30.8468 81.7616 30.5802C82.4369 30.3002 83.1729 30.1602 83.9698 30.1602C84.7261 30.1602 85.4149 30.2935 86.0362 30.5602C86.671 30.8268 87.218 31.2002 87.6772 31.6802C88.1364 32.1602 88.4876 32.7268 88.7307 33.3801C88.9738 34.0335 89.0818 34.7468 89.0548 35.5201L89.0346 36.3801H80.465L79.999 34.5801H86.4009L86.0565 34.9601V34.5601C86.0295 34.2268 85.9214 33.9335 85.7323 33.6801C85.5568 33.4135 85.3204 33.2068 85.0233 33.0601C84.7261 32.9135 84.3885 32.8401 84.0103 32.8401C83.4836 32.8401 83.0311 32.9468 82.653 33.1601C82.2883 33.3601 82.0114 33.6601 81.8223 34.0601C81.6333 34.4468 81.5387 34.9268 81.5387 35.5001C81.5387 36.0868 81.6603 36.6001 81.9034 37.0401C82.16 37.4668 82.5247 37.8001 82.9974 38.0401C83.4836 38.2801 84.0576 38.4001 84.7194 38.4001C85.1786 38.4001 85.5838 38.3334 85.9349 38.2001C86.2996 38.0668 86.6913 37.8401 87.11 37.5201L88.6294 39.6401C88.2107 40.0001 87.765 40.2934 87.2923 40.5201C86.8196 40.7468 86.3334 40.9134 85.8336 41.0201C85.3474 41.1401 84.8612 41.2001 84.375 41.2001Z" fill="#FAFAFA"/>
<path d="M95.0908 41.1801C94.1859 41.1801 93.3755 40.9468 92.6597 40.4801C91.9574 40.0001 91.3969 39.3468 90.9782 38.5201C90.5595 37.6801 90.3501 36.7335 90.3501 35.6801C90.3501 34.6001 90.5595 33.6468 90.9782 32.8201C91.3969 31.9935 91.9709 31.3468 92.7002 30.8802C93.4295 30.4002 94.2601 30.1602 95.1921 30.1602C95.7053 30.1602 96.1713 30.2335 96.5899 30.3802C97.0221 30.5268 97.4003 30.7335 97.7244 31.0002C98.0486 31.2535 98.3255 31.5535 98.5551 31.9002C98.7847 32.2335 98.9535 32.5935 99.0616 32.9801L98.393 32.9001V30.3802H101.614V41.0001H98.3322V38.4401L99.0616 38.4201C98.9535 38.7934 98.7779 39.1468 98.5348 39.4801C98.2917 39.8134 97.9946 40.1068 97.6434 40.3601C97.2923 40.6134 96.9006 40.8134 96.4684 40.9601C96.0362 41.1068 95.577 41.1801 95.0908 41.1801ZM95.9822 38.4801C96.4819 38.4801 96.9141 38.3668 97.2787 38.1401C97.6434 37.9134 97.927 37.5934 98.1296 37.1801C98.3322 36.7535 98.4335 36.2535 98.4335 35.6801C98.4335 35.1068 98.3322 34.6135 98.1296 34.2001C97.927 33.7735 97.6434 33.4468 97.2787 33.2201C96.9141 32.9801 96.4819 32.8601 95.9822 32.8601C95.4959 32.8601 95.0705 32.9801 94.7058 33.2201C94.3547 33.4468 94.0778 33.7735 93.8752 34.2001C93.6726 34.6135 93.5713 35.1068 93.5713 35.6801C93.5713 36.2535 93.6726 36.7535 93.8752 37.1801C94.0778 37.5934 94.3547 37.9134 94.7058 38.1401C95.0705 38.3668 95.4959 38.4801 95.9822 38.4801Z" fill="#FAFAFA"/>
<path d="M108.546 41.2201C107.615 41.2201 106.784 40.9868 106.055 40.5201C105.339 40.0401 104.771 39.3868 104.353 38.5601C103.934 37.7201 103.725 36.7668 103.725 35.7001C103.725 34.6335 103.934 33.6868 104.353 32.8601C104.771 32.0202 105.346 31.3602 106.075 30.8802C106.804 30.4002 107.642 30.1602 108.587 30.1602C109.073 30.1602 109.539 30.2335 109.985 30.3802C110.431 30.5268 110.836 30.7268 111.2 30.9802C111.565 31.2335 111.862 31.5268 112.092 31.8602C112.321 32.1802 112.456 32.5135 112.497 32.8601L111.727 33.0401V26.2002H114.989V41.0001H111.97L111.788 38.5801L112.436 38.6801C112.396 39.0134 112.261 39.3334 112.031 39.6401C111.815 39.9468 111.531 40.2201 111.18 40.4601C110.829 40.6868 110.424 40.8668 109.965 41.0001C109.519 41.1468 109.046 41.2201 108.546 41.2201ZM109.377 38.5601C109.877 38.5601 110.309 38.4401 110.674 38.2001C111.038 37.9601 111.315 37.6268 111.504 37.2001C111.707 36.7734 111.808 36.2735 111.808 35.7001C111.808 35.1135 111.707 34.6068 111.504 34.1801C111.315 33.7535 111.038 33.4201 110.674 33.1801C110.309 32.9401 109.877 32.8201 109.377 32.8201C108.877 32.8201 108.445 32.9401 108.08 33.1801C107.729 33.4201 107.452 33.7535 107.25 34.1801C107.047 34.6068 106.946 35.1135 106.946 35.7001C106.946 36.2735 107.047 36.7734 107.25 37.2001C107.452 37.6268 107.729 37.9601 108.08 38.2001C108.445 38.4401 108.877 38.5601 109.377 38.5601Z" fill="#FAFAFA"/>
</svg>
