<svg width="55" height="47" viewBox="0 0 55 47" fill="none" xmlns="http://www.w3.org/2000/svg">
<path d="M19.4286 0.605568L11.7076 0C11.859 1.16067 11.8086 3.22969 11.5562 5.09686C11.203 8.12469 10.0423 13.6253 8.73025 18.3689C6.86308 25.4338 3.02784 36.0312 0 41.0776L7.06494 43.4494C9.84046 37.4947 13.2215 27.1496 15.0382 20.0846C16.4008 14.9878 17.6119 8.78072 18.3184 5.34918C18.5707 4.23897 19.0754 1.96809 19.4286 0.605568ZM6.5603 8.12469C4.49128 8.12469 2.82598 8.07423 0.201854 7.77144L0.403708 14.029C2.16995 14.1299 4.03711 14.2308 6.50984 14.2308C12.2123 14.2308 20.1351 13.4234 26.3926 11.9599V5.65196C19.8323 7.21634 12.7169 8.12469 6.5603 8.12469Z" fill="#1897BF"/>
<path d="M33.1423 5.27755L28.0291 8.22969C29.9683 10.7811 31.6386 13.3713 33.4048 16.4305C34.9187 19.0527 36.1956 21.87 37.2203 24.2502L42.5151 21.3098C41.3138 18.6236 39.931 15.9258 38.4928 13.4347C36.8275 10.5503 34.8175 7.57353 33.1423 5.27755Z" fill="#FFC225"/>
<path d="M7.54026 7.59412C5.40731 7.59412 3.69055 7.54118 0.985352 7.22353L1.19344 13.7882C3.01425 13.8941 4.9391 14 7.48824 14C13.3669 14 21.5345 13.1529 27.9854 11.6176V5C21.2223 6.64118 13.8871 7.59412 7.54026 7.59412Z" fill="#FFC225"/>
<path d="M34.8038 6.2407L27.6379 3.36426C26.7295 5.48374 25.7707 7.14905 25.1652 8.46111C22.4401 13.3056 12.095 33.8949 8.41113 43.9877L15.5265 46.41C16.2835 43.7354 17.9993 38.0834 19.3618 35.1565C21.128 31.069 24.0045 27.5365 27.436 27.5365C29.2527 27.5365 30.2116 28.5962 30.3629 30.3625C30.5143 32.4315 30.5143 36.5191 30.6657 39.2441C30.918 42.8775 33.4917 46.2586 39.0932 46.2586C46.8646 46.2586 51.5073 40.5057 54.1819 31.8259L48.6814 27.3851C47.2684 33.6426 44.5433 39.345 40.1529 39.345C38.4876 39.345 37.1251 38.5376 36.9233 36.5695C36.6709 34.45 36.7719 30.4129 36.6709 28.1925C36.4691 23.9535 34.1982 21.5817 30.4134 21.5817C28.4958 21.5817 26.5277 22.0359 24.6605 23.1461C27.1332 18.6548 30.6657 12.1954 33.1889 8.6125C33.744 7.75462 34.2487 6.89673 34.8038 6.2407Z" fill="#1897BF"/>
</svg>
