<svg width="115" height="47" viewBox="0 0 115 47" fill="none" xmlns="http://www.w3.org/2000/svg">
<path d="M19.4286 0.605568L11.7076 0C11.859 1.16067 11.8086 3.22969 11.5562 5.09686C11.203 8.12469 10.0423 13.6253 8.73025 18.3689C6.86308 25.4338 3.02784 36.0312 0 41.0776L7.06494 43.4494C9.84046 37.4947 13.2215 27.1496 15.0382 20.0846C16.4008 14.9878 17.6119 8.78072 18.3184 5.34918C18.5707 4.23897 19.0754 1.96809 19.4286 0.605568ZM6.5603 8.12469C4.49128 8.12469 2.82598 8.07423 0.201854 7.77144L0.403708 14.029C2.16995 14.1299 4.03711 14.2308 6.50984 14.2308C12.2123 14.2308 20.1351 13.4234 26.3926 11.9599V5.65196C19.8323 7.21634 12.7169 8.12469 6.5603 8.12469Z" fill="#1897BF"/>
<path d="M33.1423 5.27755L28.0291 8.22969C29.9683 10.7811 31.6386 13.3713 33.4048 16.4305C34.9187 19.0527 36.1956 21.87 37.2203 24.2502L42.5151 21.3098C41.3138 18.6236 39.931 15.9258 38.4928 13.4347C36.8275 10.5503 34.8175 7.57353 33.1423 5.27755Z" fill="#FFC225"/>
<path d="M7.54026 7.59412C5.40731 7.59412 3.69055 7.54118 0.985352 7.22353L1.19344 13.7882C3.01425 13.8941 4.9391 14 7.48824 14C13.3669 14 21.5345 13.1529 27.9854 11.6176V5C21.2223 6.64118 13.8871 7.59412 7.54026 7.59412Z" fill="#FFC225"/>
<path d="M34.8038 6.2407L27.6379 3.36426C26.7295 5.48374 25.7707 7.14905 25.1652 8.46111C22.4401 13.3056 12.095 33.8949 8.41113 43.9877L15.5265 46.41C16.2835 43.7354 17.9993 38.0834 19.3618 35.1565C21.128 31.069 24.0045 27.5365 27.436 27.5365C29.2527 27.5365 30.2116 28.5962 30.3629 30.3625C30.5143 32.4315 30.5143 36.5191 30.6657 39.2441C30.918 42.8775 33.4917 46.2586 39.0932 46.2586C46.8646 46.2586 51.5073 40.5057 54.1819 31.8259L48.6814 27.3851C47.2684 33.6426 44.5433 39.345 40.1529 39.345C38.4876 39.345 37.1251 38.5376 36.9233 36.5695C36.6709 34.45 36.7719 30.4129 36.6709 28.1925C36.4691 23.9535 34.1982 21.5817 30.4134 21.5817C28.4958 21.5817 26.5277 22.0359 24.6605 23.1461C27.1332 18.6548 30.6657 12.1954 33.1889 8.6125C33.744 7.75462 34.2487 6.89673 34.8038 6.2407Z" fill="#1897BF"/>
<path d="M68.7014 23.2C68.1948 23.2 67.7148 23.14 67.2614 23.02C66.8081 22.9133 66.3948 22.7533 66.0214 22.54C65.6481 22.3133 65.3148 22.0467 65.0214 21.74C64.7281 21.42 64.4748 21.0667 64.2614 20.68L66.2014 18.66C66.3881 18.94 66.5681 19.1733 66.7414 19.36C66.9148 19.5333 67.0814 19.68 67.2414 19.8C67.4148 19.92 67.5881 20.0067 67.7614 20.06C67.9481 20.1133 68.1414 20.14 68.3414 20.14C68.6614 20.14 68.9414 20.0667 69.1814 19.92C69.4348 19.76 69.6281 19.5467 69.7614 19.28C69.8948 19.0133 69.9614 18.7 69.9614 18.34V11.96H67.4014V9H75.4414V11.96H73.2814V18.74C73.2814 19.42 73.1614 20.0333 72.9214 20.58C72.6948 21.1267 72.3748 21.6 71.9614 22C71.5481 22.3867 71.0614 22.6867 70.5014 22.9C69.9548 23.1 69.3548 23.2 68.7014 23.2ZM80.8261 23.22C80.0395 23.22 79.3661 23.0533 78.8061 22.72C78.2595 22.3733 77.8328 21.88 77.5261 21.24C77.2328 20.6 77.0861 19.8333 77.0861 18.94V12.38H80.3061V18.5C80.3061 18.9267 80.3728 19.2933 80.5061 19.6C80.6395 19.9067 80.8395 20.1467 81.1061 20.32C81.3728 20.48 81.6928 20.56 82.0661 20.56C82.3461 20.56 82.5995 20.5133 82.8261 20.42C83.0661 20.3267 83.2661 20.2 83.4261 20.04C83.5995 19.8667 83.7328 19.6733 83.8261 19.46C83.9195 19.2333 83.9661 18.9867 83.9661 18.72V12.38H87.1861V23H84.1661L84.0261 20.82L84.6261 20.58C84.4661 21.0867 84.1995 21.54 83.8261 21.94C83.4528 22.3267 83.0061 22.64 82.4861 22.88C81.9661 23.1067 81.4128 23.22 80.8261 23.22ZM93.6182 23.2C92.5782 23.2 91.6582 23.0333 90.8582 22.7C90.0715 22.3667 89.4448 21.92 88.9782 21.36L90.9182 19.68C91.3315 20.0933 91.7982 20.4 92.3182 20.6C92.8382 20.7867 93.3315 20.88 93.7982 20.88C93.9848 20.88 94.1515 20.86 94.2982 20.82C94.4448 20.78 94.5648 20.7267 94.6582 20.66C94.7648 20.58 94.8448 20.4933 94.8982 20.4C94.9515 20.2933 94.9782 20.1733 94.9782 20.04C94.9782 19.7733 94.8582 19.5667 94.6182 19.42C94.4982 19.3533 94.2982 19.2733 94.0182 19.18C93.7382 19.0867 93.3782 18.98 92.9382 18.86C92.3115 18.7 91.7648 18.5133 91.2982 18.3C90.8448 18.0733 90.4715 17.8133 90.1782 17.52C89.9115 17.24 89.7048 16.9333 89.5582 16.6C89.4115 16.2533 89.3382 15.8667 89.3382 15.44C89.3382 14.9467 89.4515 14.5 89.6782 14.1C89.9182 13.7 90.2315 13.3533 90.6182 13.06C91.0182 12.7667 91.4715 12.5467 91.9782 12.4C92.4982 12.24 93.0315 12.16 93.5782 12.16C94.1648 12.16 94.7248 12.2267 95.2582 12.36C95.7915 12.4933 96.2848 12.68 96.7382 12.92C97.2048 13.16 97.6182 13.4467 97.9782 13.78L96.2982 15.66C96.0582 15.4333 95.7848 15.2333 95.4782 15.06C95.1848 14.8733 94.8782 14.7267 94.5582 14.62C94.2382 14.5133 93.9448 14.46 93.6782 14.46C93.4782 14.46 93.2982 14.48 93.1382 14.52C92.9915 14.5467 92.8648 14.6 92.7582 14.68C92.6515 14.7467 92.5715 14.8333 92.5182 14.94C92.4648 15.0333 92.4382 15.1467 92.4382 15.28C92.4382 15.4133 92.4715 15.54 92.5382 15.66C92.6182 15.78 92.7248 15.88 92.8582 15.96C92.9915 16.04 93.2048 16.1333 93.4982 16.24C93.7915 16.3333 94.1915 16.4533 94.6982 16.6C95.3248 16.7733 95.8648 16.9667 96.3182 17.18C96.7715 17.3933 97.1315 17.6467 97.3982 17.94C97.6115 18.1667 97.7715 18.4333 97.8782 18.74C97.9848 19.0333 98.0382 19.3533 98.0382 19.7C98.0382 20.38 97.8448 20.9867 97.4582 21.52C97.0848 22.04 96.5648 22.4533 95.8982 22.76C95.2315 23.0533 94.4715 23.2 93.6182 23.2ZM100.821 23V9.7H104.021V23H100.821ZM98.9405 15.18V12.38H106.081V15.18H98.9405Z" fill="#FFC225"/>
<path d="M64.925 41V27H71.225C72.1184 27 72.925 27.1933 73.645 27.58C74.3784 27.9667 74.9517 28.5 75.365 29.18C75.7784 29.8467 75.985 30.6067 75.985 31.46C75.985 32.34 75.7784 33.1333 75.365 33.84C74.9517 34.5333 74.385 35.08 73.665 35.48C72.945 35.88 72.1317 36.08 71.225 36.08H68.165V41H64.925ZM72.685 41L69.125 34.68L72.605 34.18L76.565 41H72.685ZM68.165 33.48H70.925C71.2717 33.48 71.5717 33.4067 71.825 33.26C72.0917 33.1 72.2917 32.88 72.425 32.6C72.5717 32.32 72.645 32 72.645 31.64C72.645 31.28 72.565 30.9667 72.405 30.7C72.245 30.42 72.0117 30.2067 71.705 30.06C71.4117 29.9133 71.0517 29.84 70.625 29.84H68.165V33.48ZM83.2974 41.2C82.124 41.2 81.104 40.9667 80.2374 40.5C79.3707 40.02 78.6974 39.3733 78.2174 38.56C77.7374 37.7333 77.4974 36.7933 77.4974 35.74C77.4974 34.9267 77.6307 34.18 77.8974 33.5C78.164 32.82 78.5374 32.2333 79.0174 31.74C79.4974 31.2333 80.064 30.8467 80.7174 30.58C81.384 30.3 82.1107 30.16 82.8974 30.16C83.644 30.16 84.324 30.2933 84.9374 30.56C85.564 30.8267 86.104 31.2 86.5574 31.68C87.0107 32.16 87.3574 32.7267 87.5974 33.38C87.8374 34.0333 87.9441 34.7467 87.9174 35.52L87.8974 36.38H79.4374L78.9774 34.58H85.2974L84.9574 34.96V34.56C84.9307 34.2267 84.8241 33.9333 84.6374 33.68C84.464 33.4133 84.2307 33.2067 83.9374 33.06C83.644 32.9133 83.3107 32.84 82.9374 32.84C82.4174 32.84 81.9707 32.9467 81.5974 33.16C81.2374 33.36 80.964 33.66 80.7774 34.06C80.5907 34.4467 80.4974 34.9267 80.4974 35.5C80.4974 36.0867 80.6174 36.6 80.8574 37.04C81.1107 37.4667 81.4707 37.8 81.9374 38.04C82.4174 38.28 82.984 38.4 83.6374 38.4C84.0907 38.4 84.4907 38.3333 84.8374 38.2C85.1974 38.0667 85.5841 37.84 85.9974 37.52L87.4974 39.64C87.0841 40 86.644 40.2933 86.1774 40.52C85.7107 40.7467 85.2307 40.9133 84.7374 41.02C84.2574 41.14 83.7774 41.2 83.2974 41.2ZM93.8761 41.18C92.9828 41.18 92.1828 40.9467 91.4761 40.48C90.7828 40 90.2295 39.3467 89.8161 38.52C89.4028 37.68 89.1961 36.7333 89.1961 35.68C89.1961 34.6 89.4028 33.6467 89.8161 32.82C90.2295 31.9933 90.7961 31.3467 91.5161 30.88C92.2361 30.4 93.0561 30.16 93.9761 30.16C94.4828 30.16 94.9428 30.2333 95.3561 30.38C95.7828 30.5267 96.1561 30.7333 96.4761 31C96.7961 31.2533 97.0695 31.5533 97.2961 31.9C97.5228 32.2333 97.6895 32.5933 97.7961 32.98L97.1361 32.9V30.38H100.316V41H97.0761V38.44L97.7961 38.42C97.6895 38.7933 97.5161 39.1467 97.2761 39.48C97.0361 39.8133 96.7428 40.1067 96.3961 40.36C96.0495 40.6133 95.6628 40.8133 95.2361 40.96C94.8095 41.1067 94.3561 41.18 93.8761 41.18ZM94.7561 38.48C95.2495 38.48 95.6761 38.3667 96.0361 38.14C96.3961 37.9133 96.6761 37.5933 96.8761 37.18C97.0761 36.7533 97.1761 36.2533 97.1761 35.68C97.1761 35.1067 97.0761 34.6133 96.8761 34.2C96.6761 33.7733 96.3961 33.4467 96.0361 33.22C95.6761 32.98 95.2495 32.86 94.7561 32.86C94.2761 32.86 93.8561 32.98 93.4961 33.22C93.1495 33.4467 92.8761 33.7733 92.6761 34.2C92.4761 34.6133 92.3761 35.1067 92.3761 35.68C92.3761 36.2533 92.4761 36.7533 92.6761 37.18C92.8761 37.5933 93.1495 37.9133 93.4961 38.14C93.8561 38.3667 94.2761 38.48 94.7561 38.48ZM107.16 41.22C106.24 41.22 105.42 40.9867 104.7 40.52C103.993 40.04 103.433 39.3867 103.02 38.56C102.606 37.72 102.4 36.7667 102.4 35.7C102.4 34.6333 102.606 33.6867 103.02 32.86C103.433 32.02 104 31.36 104.72 30.88C105.44 30.4 106.266 30.16 107.2 30.16C107.68 30.16 108.14 30.2333 108.58 30.38C109.02 30.5267 109.42 30.7267 109.78 30.98C110.14 31.2333 110.433 31.5267 110.66 31.86C110.886 32.18 111.02 32.5133 111.06 32.86L110.3 33.04V26.2H113.52V41H110.54L110.36 38.58L111 38.68C110.96 39.0133 110.826 39.3333 110.6 39.64C110.386 39.9467 110.106 40.22 109.76 40.46C109.413 40.6867 109.013 40.8667 108.56 41C108.12 41.1467 107.653 41.22 107.16 41.22ZM107.98 38.56C108.473 38.56 108.9 38.44 109.26 38.2C109.62 37.96 109.893 37.6267 110.08 37.2C110.28 36.7733 110.38 36.2733 110.38 35.7C110.38 35.1133 110.28 34.6067 110.08 34.18C109.893 33.7533 109.62 33.42 109.26 33.18C108.9 32.94 108.473 32.82 107.98 32.82C107.486 32.82 107.06 32.94 106.7 33.18C106.353 33.42 106.08 33.7533 105.88 34.18C105.68 34.6067 105.58 35.1133 105.58 35.7C105.58 36.2733 105.68 36.7733 105.88 37.2C106.08 37.6267 106.353 37.96 106.7 38.2C107.06 38.44 107.486 38.56 107.98 38.56Z" fill="#FFC225"/>
</svg>
